<svg xmlns="http://www.w3.org/2000/svg" xmlns:xlink="http://www.w3.org/1999/xlink" width="500" zoomAndPan="magnify" viewBox="0 0 375 374.999991" height="500" preserveAspectRatio="xMidYMid meet" version="1.0"><defs><g/></defs><g fill="#023e8a" fill-opacity="1"><g transform="translate(151.40961, 335.847983)"><g><path d="M 22.328125 -3.0625 C 27.628906 -3.0625 32.164062 -4.945312 35.9375 -8.71875 C 39.707031 -12.488281 41.695312 -17.023438 41.90625 -22.328125 L 41.90625 -193.59375 C 41.90625 -198.488281 39.96875 -202.617188 36.09375 -205.984375 C 32.21875 -209.347656 27.628906 -211.03125 22.328125 -211.03125 L 18.65625 -211.03125 L 18.34375 -214.09375 L 80.4375 -214.09375 C 86.757812 -214.09375 93.640625 -214.703125 101.078125 -215.921875 C 108.523438 -217.148438 113.773438 -218.375 116.828125 -219.59375 L 116.828125 -181.0625 L 113.78125 -181.0625 L 113.78125 -186.5625 C 113.78125 -191.457031 112.097656 -195.632812 108.734375 -199.09375 C 105.367188 -202.5625 101.335938 -204.398438 96.640625 -204.609375 L 61.78125 -204.609375 L 61.78125 -110.109375 L 119.890625 -110.109375 C 123.960938 -110.304688 127.425781 -111.832031 130.28125 -114.6875 C 133.144531 -117.539062 134.578125 -121.109375 134.578125 -125.390625 L 134.578125 -129.671875 L 137.625 -129.671875 L 137.625 -81.359375 L 134.578125 -81.359375 L 134.578125 -85.9375 C 134.578125 -90.019531 133.195312 -93.488281 130.4375 -96.34375 C 127.6875 -99.195312 124.273438 -100.722656 120.203125 -100.921875 L 61.78125 -100.921875 L 61.78125 -9.484375 L 126.921875 -9.484375 C 142.015625 -9.484375 153.535156 -12.847656 161.484375 -19.578125 C 169.429688 -26.304688 176.054688 -36.296875 181.359375 -49.546875 L 184.421875 -49.546875 L 166.6875 0 L 18.34375 0 L 18.34375 -3.0625 Z M 22.328125 -3.0625 "/></g></g></g><g fill="#023e8a" fill-opacity="1"><g transform="translate(20.212056, 275.658557)"><g><path d="M 243.75 -107.34375 C 243.75 -72.28125 234.316406 -44.910156 215.453125 -25.234375 C 196.597656 -5.554688 169.941406 4.28125 135.484375 4.28125 C 112.242188 4.28125 91.296875 -0.609375 72.640625 -10.390625 C 53.984375 -20.179688 39.503906 -33.535156 29.203125 -50.453125 C 18.910156 -67.378906 13.765625 -86.289062 13.765625 -107.1875 C 13.765625 -128.09375 18.859375 -147.003906 29.046875 -163.921875 C 39.242188 -180.847656 53.3125 -194.15625 71.25 -203.84375 C 89.195312 -213.53125 109.179688 -218.375 131.203125 -218.375 C 145.066406 -218.375 159.1875 -216.488281 173.5625 -212.71875 C 187.9375 -208.945312 199.914062 -203.898438 209.5 -197.578125 L 215.625 -154.453125 L 212.875 -154.453125 C 208.582031 -171.578125 198.6875 -184.984375 183.1875 -194.671875 C 167.695312 -204.359375 150.472656 -209.203125 131.515625 -209.203125 C 104.390625 -209.203125 81.804688 -199.566406 63.765625 -180.296875 C 45.722656 -161.023438 36.703125 -136.8125 36.703125 -107.65625 C 36.703125 -78.5 46.03125 -54.082031 64.6875 -34.40625 C 83.34375 -14.726562 107.757812 -4.890625 137.9375 -4.890625 C 168.113281 -4.890625 192.734375 -14.675781 211.796875 -34.25 C 230.859375 -53.820312 240.390625 -80.632812 240.390625 -114.6875 L 243.453125 -114.6875 C 243.648438 -112.238281 243.75 -109.789062 243.75 -107.34375 Z M 243.75 -107.34375 "/></g></g></g><path fill="#ffffff" d="M 66.636719 167.054688 L 308.347656 167.054688 C 310.390625 167.054688 312.351562 167.867188 313.796875 169.3125 C 315.242188 170.757812 316.054688 172.71875 316.054688 174.761719 L 316.054688 190.175781 C 316.054688 192.222656 315.242188 194.179688 313.796875 195.625 C 312.351562 197.070312 310.390625 197.882812 308.347656 197.882812 L 66.636719 197.882812 C 64.59375 197.882812 62.632812 197.070312 61.1875 195.625 C 59.742188 194.179688 58.929688 192.222656 58.929688 190.175781 L 58.929688 174.761719 C 58.929688 172.71875 59.742188 170.757812 61.1875 169.3125 C 62.632812 167.867188 64.59375 167.054688 66.636719 167.054688 Z M 66.636719 167.054688 " fill-opacity="1" fill-rule="nonzero"/><g fill="#023e8a" fill-opacity="1"><g transform="translate(73.988133, 188.247464)"><g><path d="M 13.015625 -2.65625 C 12.472656 -1.75 11.722656 -1.050781 10.765625 -0.5625 C 9.816406 -0.0703125 8.753906 0.171875 7.578125 0.171875 C 6.171875 0.171875 4.96875 -0.0976562 3.96875 -0.640625 C 2.96875 -1.179688 2.203125 -1.953125 1.671875 -2.953125 C 1.140625 -3.960938 0.875 -5.171875 0.875 -6.578125 C 0.875 -8.023438 1.164062 -9.296875 1.75 -10.390625 C 2.34375 -11.484375 3.164062 -12.335938 4.21875 -12.953125 C 5.269531 -13.566406 6.492188 -13.875 7.890625 -13.875 C 9.066406 -13.875 10.078125 -13.648438 10.921875 -13.203125 C 11.765625 -12.753906 12.46875 -12.070312 13.03125 -11.15625 L 11.109375 -9.78125 C 10.753906 -10.414062 10.296875 -10.878906 9.734375 -11.171875 C 9.171875 -11.472656 8.546875 -11.625 7.859375 -11.625 C 6.992188 -11.625 6.222656 -11.410156 5.546875 -10.984375 C 4.878906 -10.566406 4.351562 -9.976562 3.96875 -9.21875 C 3.59375 -8.46875 3.40625 -7.597656 3.40625 -6.609375 C 3.40625 -5.179688 3.773438 -4.066406 4.515625 -3.265625 C 5.253906 -2.472656 6.285156 -2.078125 7.609375 -2.078125 C 8.347656 -2.078125 9.023438 -2.242188 9.640625 -2.578125 C 10.253906 -2.910156 10.753906 -3.421875 11.140625 -4.109375 Z M 13.015625 -2.65625 "/></g></g></g><g fill="#023e8a" fill-opacity="1"><g transform="translate(101.545811, 188.247464)"><g><path d="M 7.5 0.171875 C 6.113281 0.179688 4.925781 -0.078125 3.9375 -0.609375 C 2.945312 -1.140625 2.1875 -1.910156 1.65625 -2.921875 C 1.132812 -3.941406 0.875 -5.164062 0.875 -6.59375 C 0.875 -8.019531 1.15625 -9.28125 1.71875 -10.375 C 2.28125 -11.476562 3.078125 -12.335938 4.109375 -12.953125 C 5.148438 -13.566406 6.378906 -13.875 7.796875 -13.875 C 9.046875 -13.875 10.144531 -13.59375 11.09375 -13.03125 C 12.050781 -12.46875 12.789062 -11.679688 13.3125 -10.671875 C 13.84375 -9.660156 14.109375 -8.472656 14.109375 -7.109375 C 14.109375 -5.628906 13.820312 -4.347656 13.25 -3.265625 C 12.675781 -2.179688 11.890625 -1.335938 10.890625 -0.734375 C 9.898438 -0.128906 8.769531 0.171875 7.5 0.171875 Z M 7.421875 -2.078125 C 8.234375 -2.078125 8.953125 -2.273438 9.578125 -2.671875 C 10.203125 -3.078125 10.6875 -3.648438 11.03125 -4.390625 C 11.382812 -5.140625 11.5625 -6.046875 11.5625 -7.109375 C 11.5625 -8.484375 11.210938 -9.582031 10.515625 -10.40625 C 9.828125 -11.226562 8.898438 -11.640625 7.734375 -11.640625 C 6.898438 -11.640625 6.15625 -11.425781 5.5 -11 C 4.851562 -10.582031 4.34375 -10 3.96875 -9.25 C 3.59375 -8.507812 3.40625 -7.632812 3.40625 -6.625 C 3.40625 -5.175781 3.757812 -4.054688 4.46875 -3.265625 C 5.1875 -2.472656 6.171875 -2.078125 7.421875 -2.078125 Z M 7.421875 -2.078125 "/></g></g></g><g fill="#023e8a" fill-opacity="1"><g transform="translate(131.204557, 188.247464)"><g><path d="M 5.671875 0.171875 C 4.066406 0.171875 2.8125 -0.1875 1.90625 -0.90625 C 1.007812 -1.625 0.492188 -2.675781 0.359375 -4.0625 L 2.71875 -4.421875 C 2.945312 -2.773438 3.96875 -1.953125 5.78125 -1.953125 C 6.5625 -1.953125 7.171875 -2.109375 7.609375 -2.421875 C 8.046875 -2.734375 8.265625 -3.171875 8.265625 -3.734375 C 8.265625 -4.253906 8.046875 -4.644531 7.609375 -4.90625 C 7.171875 -5.164062 6.472656 -5.414062 5.515625 -5.65625 C 4.617188 -5.875 3.847656 -6.132812 3.203125 -6.4375 C 2.554688 -6.738281 2.0625 -7.144531 1.71875 -7.65625 C 1.382812 -8.164062 1.21875 -8.847656 1.21875 -9.703125 C 1.21875 -10.503906 1.425781 -11.21875 1.84375 -11.84375 C 2.257812 -12.476562 2.832031 -12.972656 3.5625 -13.328125 C 4.300781 -13.691406 5.148438 -13.875 6.109375 -13.875 C 7.378906 -13.875 8.421875 -13.539062 9.234375 -12.875 C 10.046875 -12.207031 10.519531 -11.289062 10.65625 -10.125 L 8.46875 -9.75 C 8.195312 -11.09375 7.375 -11.765625 6 -11.765625 C 5.332031 -11.765625 4.785156 -11.585938 4.359375 -11.234375 C 3.941406 -10.890625 3.734375 -10.4375 3.734375 -9.875 C 3.734375 -9.3125 3.9375 -8.878906 4.34375 -8.578125 C 4.757812 -8.273438 5.460938 -8.003906 6.453125 -7.765625 C 7.347656 -7.566406 8.113281 -7.328125 8.75 -7.046875 C 9.394531 -6.765625 9.894531 -6.378906 10.25 -5.890625 C 10.601562 -5.410156 10.78125 -4.742188 10.78125 -3.890625 C 10.78125 -3.097656 10.5625 -2.394531 10.125 -1.78125 C 9.695312 -1.175781 9.097656 -0.695312 8.328125 -0.34375 C 7.566406 0 6.679688 0.171875 5.671875 0.171875 Z M 5.671875 0.171875 "/></g></g></g><g fill="#023e8a" fill-opacity="1"><g transform="translate(157.181624, 188.247464)"><g><path d="M 1.328125 0 L 1.84375 -13.6875 L 4.03125 -13.6875 L 9.046875 -3.140625 L 14.03125 -13.6875 L 16.21875 -13.6875 L 16.640625 0 L 14.234375 0 L 13.953125 -8.515625 L 9.890625 0 L 8 0 L 3.984375 -8.46875 L 3.640625 0 Z M 1.328125 0 "/></g></g></g><g fill="#023e8a" fill-opacity="1"><g transform="translate(189.866653, 188.247464)"><g><path d="M 7.5 0.171875 C 6.113281 0.179688 4.925781 -0.078125 3.9375 -0.609375 C 2.945312 -1.140625 2.1875 -1.910156 1.65625 -2.921875 C 1.132812 -3.941406 0.875 -5.164062 0.875 -6.59375 C 0.875 -8.019531 1.15625 -9.28125 1.71875 -10.375 C 2.28125 -11.476562 3.078125 -12.335938 4.109375 -12.953125 C 5.148438 -13.566406 6.378906 -13.875 7.796875 -13.875 C 9.046875 -13.875 10.144531 -13.59375 11.09375 -13.03125 C 12.050781 -12.46875 12.789062 -11.679688 13.3125 -10.671875 C 13.84375 -9.660156 14.109375 -8.472656 14.109375 -7.109375 C 14.109375 -5.628906 13.820312 -4.347656 13.25 -3.265625 C 12.675781 -2.179688 11.890625 -1.335938 10.890625 -0.734375 C 9.898438 -0.128906 8.769531 0.171875 7.5 0.171875 Z M 7.421875 -2.078125 C 8.234375 -2.078125 8.953125 -2.273438 9.578125 -2.671875 C 10.203125 -3.078125 10.6875 -3.648438 11.03125 -4.390625 C 11.382812 -5.140625 11.5625 -6.046875 11.5625 -7.109375 C 11.5625 -8.484375 11.210938 -9.582031 10.515625 -10.40625 C 9.828125 -11.226562 8.898438 -11.640625 7.734375 -11.640625 C 6.898438 -11.640625 6.15625 -11.425781 5.5 -11 C 4.851562 -10.582031 4.34375 -10 3.96875 -9.25 C 3.59375 -8.507812 3.40625 -7.632812 3.40625 -6.625 C 3.40625 -5.175781 3.757812 -4.054688 4.46875 -3.265625 C 5.1875 -2.472656 6.171875 -2.078125 7.421875 -2.078125 Z M 7.421875 -2.078125 "/></g></g></g><g fill="#023e8a" fill-opacity="1"><g transform="translate(219.525399, 188.247464)"><g><path d="M 5.671875 0.171875 C 4.066406 0.171875 2.8125 -0.1875 1.90625 -0.90625 C 1.007812 -1.625 0.492188 -2.675781 0.359375 -4.0625 L 2.71875 -4.421875 C 2.945312 -2.773438 3.96875 -1.953125 5.78125 -1.953125 C 6.5625 -1.953125 7.171875 -2.109375 7.609375 -2.421875 C 8.046875 -2.734375 8.265625 -3.171875 8.265625 -3.734375 C 8.265625 -4.253906 8.046875 -4.644531 7.609375 -4.90625 C 7.171875 -5.164062 6.472656 -5.414062 5.515625 -5.65625 C 4.617188 -5.875 3.847656 -6.132812 3.203125 -6.4375 C 2.554688 -6.738281 2.0625 -7.144531 1.71875 -7.65625 C 1.382812 -8.164062 1.21875 -8.847656 1.21875 -9.703125 C 1.21875 -10.503906 1.425781 -11.21875 1.84375 -11.84375 C 2.257812 -12.476562 2.832031 -12.972656 3.5625 -13.328125 C 4.300781 -13.691406 5.148438 -13.875 6.109375 -13.875 C 7.378906 -13.875 8.421875 -13.539062 9.234375 -12.875 C 10.046875 -12.207031 10.519531 -11.289062 10.65625 -10.125 L 8.46875 -9.75 C 8.195312 -11.09375 7.375 -11.765625 6 -11.765625 C 5.332031 -11.765625 4.785156 -11.585938 4.359375 -11.234375 C 3.941406 -10.890625 3.734375 -10.4375 3.734375 -9.875 C 3.734375 -9.3125 3.9375 -8.878906 4.34375 -8.578125 C 4.757812 -8.273438 5.460938 -8.003906 6.453125 -7.765625 C 7.347656 -7.566406 8.113281 -7.328125 8.75 -7.046875 C 9.394531 -6.765625 9.894531 -6.378906 10.25 -5.890625 C 10.601562 -5.410156 10.78125 -4.742188 10.78125 -3.890625 C 10.78125 -3.097656 10.5625 -2.394531 10.125 -1.78125 C 9.695312 -1.175781 9.097656 -0.695312 8.328125 -0.34375 C 7.566406 0 6.679688 0.171875 5.671875 0.171875 Z M 5.671875 0.171875 "/></g></g></g><g fill="#023e8a" fill-opacity="1"><g transform="translate(245.502466, 188.247464)"><g><path d="M 1.40625 0 L 1.40625 -13.6875 L 3.921875 -13.6875 L 3.921875 0 Z M 1.40625 0 "/></g></g></g><g fill="#023e8a" fill-opacity="1"><g transform="translate(265.504061, 188.247464)"><g><path d="M 1.40625 0 L 1.40625 -13.6875 L 3.921875 -13.6875 L 3.921875 -2.203125 L 10 -2.203125 L 9.828125 0 Z M 1.40625 0 "/></g></g></g><g fill="#023e8a" fill-opacity="1"><g transform="translate(290.093264, 188.247464)"><g><path d="M 10.21875 -11.53125 L 3.859375 -11.53125 L 3.859375 -8 L 9.90625 -8 L 9.90625 -5.84375 L 3.859375 -5.84375 L 3.859375 -2.15625 L 10.453125 -2.15625 L 10.28125 0 L 1.40625 0 L 1.40625 -13.6875 L 10.21875 -13.6875 Z M 10.21875 -11.53125 "/></g></g></g></svg>